<svg width="14" height="9" viewBox="0 0 14 9" fill="none" xmlns="http://www.w3.org/2000/svg">
<path fill-rule="evenodd" clip-rule="evenodd" d="M6.55396 8.28342H7.33325C7.33325 8.28342 7.56865 8.25758 7.68883 8.12802C7.79945 8.00909 7.79591 7.78572 7.79591 7.78572C7.79591 7.78572 7.78069 6.74006 8.266 6.58608C8.7444 6.4344 9.35874 7.5967 10.0099 8.0436C10.5023 8.38183 10.8764 8.30767 10.8764 8.30767L12.6175 8.28342C12.6175 8.28342 13.5283 8.22732 13.0964 7.51121C13.061 7.45263 12.8449 6.98148 11.8019 6.01333C10.7102 5.00006 10.8564 5.16395 12.1715 3.41121C12.9724 2.34378 13.2925 1.69209 13.1925 1.41298C13.0971 1.14714 12.5081 1.2174 12.5081 1.2174L10.5478 1.22962C10.5478 1.22962 10.4025 1.20979 10.2947 1.27422C10.1894 1.3374 10.1216 1.48466 10.1216 1.48466C10.1216 1.48466 9.81131 2.31068 9.3975 3.01316C8.52458 4.49546 8.17555 4.57369 8.0329 4.48165C7.70104 4.26714 7.78387 3.61988 7.78387 3.16006C7.78387 1.7236 8.00175 1.12466 7.35962 0.969617C7.14653 0.918113 6.98971 0.88413 6.44476 0.878644C5.74529 0.871387 5.15325 0.880767 4.81803 1.04502C4.59502 1.15422 4.42299 1.39758 4.52777 1.41156C4.65732 1.42891 4.95077 1.49068 5.10635 1.70254C5.30723 1.97581 5.30015 2.58962 5.30015 2.58962C5.30015 2.58962 5.41555 4.28059 5.0306 4.49068C4.76635 4.63475 4.40387 4.34059 3.62564 2.99581C3.22688 2.30696 2.92582 1.54555 2.92582 1.54555C2.92582 1.54555 2.86776 1.40325 2.76423 1.32714C2.63856 1.23493 2.46299 1.20555 2.46299 1.20555L0.600155 1.21776C0.600155 1.21776 0.320509 1.22555 0.217854 1.34714C0.126526 1.45528 0.210597 1.679 0.210597 1.679C0.210597 1.679 1.669 5.09103 3.32033 6.8105C4.83449 8.38696 6.55396 8.28342 6.55396 8.28342Z" fill="white"/>
</svg>
